<?xml version="1.0" encoding="UTF-8"?>
<svg xmlns="http://www.w3.org/2000/svg" viewBox="0 0 45 39" style="transition: none !important; animation-duration: 0s !important; animation-delay: -0.0001s; animation-play-state: paused; fill: rgb(3, 3, 3); height: 50px; transition-property: none; visibility: visible; width: 50px"><path d="M31.755 2.88374L28.41 0.438733C27.615 -0.146244 26.55 -0.146244 25.755 0.438733L12.9225 9.82875C12.3375 10.2563 12 10.9163 12 11.6437C12 12.3713 12.3375 13.0313 12.9225 13.4588L17.3325 16.6857V23.2538C17.3325 24.9112 18.6825 26.2538 20.3325 26.2538H28.635C28.7325 25.7363 28.875 25.2338 29.0625 24.7538H20.3325C19.5075 24.7538 18.8325 24.0788 18.8325 23.2538V17.7833L25.755 22.8487C26.1525 23.1412 26.6175 23.2913 27.0825 23.2913C27.5475 23.2913 28.0125 23.1412 28.41 22.8487L35.3325 17.7846V19.6313C35.8237 19.5436 36.3263 19.4994 36.8325 19.5038V16.6872L39.0825 15.0413C38.9256 14.5522 39.0269 11.0773 39 10.5038C39 9.79876 39.195 9.13876 39.54 8.57626L37.4025 7.01624C34.0342 5.74636 30.1041 8.20501 29.4976 11.6963C29.2875 12.9023 28.0877 13.7358 26.88 13.5038C25.6826 13.304 24.8346 12.0698 25.0725 10.8787C25.7325 7.30124 28.395 4.21876 31.755 2.88374Z" style="transition: none !important; animation-duration: 0s !important; animation-delay: -0.0001s; animation-play-state: paused; fill: rgb(3, 3, 3); transform-origin: 0px 0px; transition-property: none; visibility: visible"></path><path d="M43.4978 8.39128C39.1567 0.977849 28.3057 2.75676 26.5496 11.1532C26.3883 12.121 27.8267 12.3949 28.0247 11.424C29.3918 4.77226 37.812 2.95882 41.7862 8.47914C41.346 8.68971 40.9894 9.03802 40.7637 9.46933L40.56 9.31877C40.6155 9.39925 40.6584 9.48599 40.7098 9.56853C40.5783 9.85422 40.5 10.1692 40.5 10.5038V14.2538C40.5774 17.2197 44.9225 17.2209 45 14.2537V10.5038C45 9.52651 44.37 8.70128 43.4978 8.39128Z" style="transition: none !important; animation-duration: 0s !important; animation-delay: -0.0001s; animation-play-state: paused; fill: rgb(3, 3, 3); transform-origin: 0px 0px; transition-property: none; visibility: visible"></path><path d="M4.5 31.5038C2.84253 31.5038 1.5 30.1612 1.5 28.5038V18.7538H15.75C16.1642 18.7538 16.5 18.418 16.5 18.0038C16.5 17.5896 16.1642 17.2538 15.75 17.2538H1.5V10.5038C1.5 8.84626 2.84253 7.50377 4.5 7.50377H13.56L15.615 6.00377H4.5C2.0175 6.00377 0 8.02127 0 10.5038V28.5038C0 30.9863 2.0175 33.0038 4.5 33.0038H30.3825C30 32.5388 29.67 32.0362 29.4 31.5038H4.5Z" style="transition: none !important; animation-duration: 0s !important; animation-delay: -0.0001s; animation-play-state: paused; fill: rgb(3, 3, 3); transform-origin: 0px 0px; transition-property: none; visibility: visible"></path><path d="M5.625 9.75377C2.15575 9.86419 2.1568 14.894 5.62509 15.0038H12.4875C10.6763 13.9573 9.89808 11.5689 11.0175 9.75377H5.625Z" style="transition: none !important; animation-duration: 0s !important; animation-delay: -0.0001s; animation-play-state: paused; fill: rgb(3, 3, 3); transform-origin: 0px 0px; transition-property: none; visibility: visible"></path><path d="M15.75 21.7538C16.7326 21.7383 16.7384 20.2704 15.75 20.2538H5.25C4.26741 20.2692 4.2616 21.7371 5.25004 21.7538H15.75Z" style="transition: none !important; animation-duration: 0s !important; animation-delay: -0.0001s; animation-play-state: paused; fill: rgb(3, 3, 3); transform-origin: 0px 0px; transition-property: none; visibility: visible"></path><path d="M16.5 24.0038C16.5 23.5892 16.1642 23.2538 15.75 23.2538H9C8.58581 23.2538 8.25 23.5892 8.25 24.0038C8.25 24.4183 8.58581 24.7538 9 24.7538H15.75C16.1642 24.7538 16.5 24.4183 16.5 24.0038Z" style="transition: none !important; animation-duration: 0s !important; animation-delay: -0.0001s; animation-play-state: paused; fill: rgb(3, 3, 3); transform-origin: 0px 0px; transition-property: none; visibility: visible"></path><path d="M36.75 21.0038C30.0739 21.0354 27.5261 29.7051 33 33.3638V37.5038C32.9833 38.0505 33.6134 38.43 34.0875 38.1712L36.75 36.8438C36.9332 36.9032 39.6242 38.3611 39.75 38.2538C40.1507 38.262 40.5082 37.9127 40.5 37.5038V33.3638C45.9766 29.7025 43.422 21.0341 36.75 21.0038ZM40.5 31.4213C37.3457 34.7706 31.4366 32.4025 31.5 27.7536C31.5 24.8588 33.855 22.5038 36.75 22.5038C41.3653 22.4688 43.7366 28.1984 40.5 31.4213Z" style="transition: none !important; animation-duration: 0s !important; animation-delay: -0.0001s; animation-play-state: paused; fill: rgb(3, 3, 3); transform-origin: 0px 0px; transition-property: none; visibility: visible"></path><path d="M36.75 24.0038C34.6824 24.0038 33 25.6861 33 27.7538C33.1762 32.7169 40.3245 32.7156 40.5 27.7537C40.5 25.6861 38.8176 24.0038 36.75 24.0038Z" style="transition: none !important; animation-duration: 0s !important; animation-delay: -0.0001s; animation-play-state: paused; fill: rgb(3, 3, 3); transform-origin: 0px 0px; transition-property: none; visibility: visible"></path><path d="M4.50004 30.0038H8.25C8.66419 30.0038 9 29.6683 9 29.2538C9 28.8392 8.66419 28.5038 8.25 28.5038H4.5C3.51526 28.5199 3.51338 29.9873 4.50004 30.0038Z" style="transition: none !important; animation-duration: 0s !important; animation-delay: -0.0001s; animation-play-state: paused; fill: rgb(3, 3, 3); transform-origin: 0px 0px; transition-property: none; visibility: visible"></path><path d="M11.25 28.5038C10.2653 28.5199 10.2634 29.9873 11.25 30.0038H15C15.4142 30.0038 15.75 29.6683 15.75 29.2538C15.75 28.8392 15.4142 28.5038 15 28.5038H11.25Z" style="transition: none !important; animation-duration: 0s !important; animation-delay: -0.0001s; animation-play-state: paused; fill: rgb(3, 3, 3); transform-origin: 0px 0px; transition-property: none; visibility: visible"></path><path d="M18 28.5038C17.0153 28.5199 17.0134 29.9873 18 30.0038H21.75C22.1642 30.0038 22.5 29.6683 22.5 29.2538C22.5 28.8392 22.1642 28.5038 21.75 28.5038H18Z" fill="#051435" style="transition: none !important; animation-duration: 0s !important; animation-delay: -0.0001s; animation-play-state: paused; fill: rgb(5, 20, 53); transform-origin: 0px 0px; transition-property: none; visibility: visible"></path></svg>