<?xml version="1.0" encoding="UTF-8"?>
<svg xmlns="http://www.w3.org/2000/svg" viewBox="0 0 80 80" style="transition: none !important; animation-duration: 0s !important; animation-delay: -0.0001s; animation-play-state: paused; fill: rgb(3, 3, 3); height: 50px; transition-property: none; visibility: visible; width: 50px"><path d="M72.6563 47.5397H42.3179C45.6624 45.8023 48.8693 43.3686 51.9154 40.2536C52.0022 40.1635 52.0662 40.054 52.1022 39.9342C52.1381 39.8144 52.1449 39.6878 52.1221 39.5648C52.0379 39.1439 48.6933 22.3445 48.6551 22.1301L48.6933 22.0995L52.4588 22.222C53.8594 22.2833 55.0304 23.2859 55.2983 24.6559L55.4361 25.3217C54.0432 25.9187 53.209 27.4264 53.5151 28.9725C53.6376 29.6078 53.9436 30.1742 54.3876 30.6256C53.1707 33.0519 53.8901 36.2586 53.8977 36.3351C53.9819 36.7484 54.3952 37.0086 54.7932 36.9244L61.9568 35.5008C62.3624 35.4242 62.6227 34.9726 62.5538 34.567C62.5002 34.3833 62.0257 31.23 59.8138 29.4162C60.0052 28.8651 60.0586 28.2759 59.944 27.6942C59.6455 26.2094 58.3902 25.1686 56.9438 25.0767L56.7983 24.3572C56.3927 22.2908 54.6324 20.7831 52.5201 20.6912L50.7521 20.6376L56.3085 16.6808C56.5533 16.5047 56.6682 16.1986 56.6146 15.9078C56.5859 15.7626 56.5157 15.6289 56.4124 15.5229C56.3091 15.4169 56.1773 15.3432 56.0329 15.3108L26.5516 8.4992C26.4454 8.47664 26.3356 8.47587 26.2291 8.49693C26.1225 8.51798 26.0213 8.56043 25.9316 8.6217L1.28755 26.1865C1.0427 26.3626 0.927861 26.6686 0.981454 26.9595C1.01009 27.1047 1.08033 27.2384 1.18361 27.3444C1.2869 27.4504 1.41877 27.524 1.56317 27.5564L10.7168 29.6687C11.1683 31.9189 13.8165 45.2512 14.1838 47.1109C14.2297 47.3559 14.3982 47.5625 14.6354 47.662C20.054 49.9809 25.7405 51.2592 31.6108 50.7234C33.1644 53.4098 32.7741 56.0579 30.4246 58.7672H22.8858C19.3729 58.7672 16.5105 61.6219 16.5105 65.1425C16.5105 68.6554 19.3729 71.518 22.8858 71.518H64.7735C64.9218 71.5179 65.0668 71.4744 65.1905 71.3927C65.3143 71.3111 65.4114 71.195 65.4699 71.0587C65.5293 70.9242 65.5487 70.7753 65.5256 70.6301C65.5025 70.4848 65.438 70.3493 65.3397 70.2398C62.2937 66.8953 62.2247 63.6348 65.1254 60.298H72.6641C76.1847 60.2903 79.0318 57.4356 79.0318 53.915C79.0318 50.4022 76.1769 47.5397 72.6563 47.5397ZM58.4438 27.9926C58.6276 28.934 58.0152 29.8601 57.0661 30.0439C56.1247 30.2353 55.2063 29.6229 55.0151 28.674C54.8007 27.5948 55.6274 26.5845 56.7294 26.5845C57.5483 26.5845 58.2754 27.1584 58.4438 27.9926ZM3.56052 26.4467L26.5363 10.0683L54.0354 16.4208L48.2265 20.5536L35.889 20.1709C36.0957 19.6659 36.1416 19.1454 35.9885 18.6479C35.4144 16.7959 32.8276 16.5815 30.9066 17.1786C28.9702 17.7756 26.988 19.4287 27.5544 21.2654C28.1361 23.1329 30.7383 23.3244 32.6363 22.735C33.4399 22.49 34.1365 22.115 34.695 21.6634L46.1677 22.0233L31.0521 32.7917L3.56052 26.4467ZM14.3213 39.9398L12.3543 30.0439L31.0441 34.3604C31.2736 34.414 31.488 34.3604 31.6641 34.2379L47.2849 23.1022L49.2519 32.9981C39.2105 43.0854 27.4777 45.435 14.3213 39.9398ZM63.166 69.9875H28.9625V65.9081H61.5129C61.666 67.2781 62.2169 68.6405 63.166 69.9875ZM61.5129 64.3775H28.9625V60.2983H63.166C62.2169 61.6375 61.666 63.0073 61.5129 64.3775ZM66.5794 58.7675H32.376C33.3327 57.4205 33.8836 56.0504 34.0291 54.6806H66.5794V58.7675ZM66.5794 53.1498H34.0291C33.9296 52.2772 33.6694 51.3972 33.2408 50.5247C35.1543 50.2415 37.0216 49.7517 38.8585 49.0704H66.5794V53.1498Z" style="transition: none !important; animation-duration: 0s !important; animation-delay: -0.0001s; animation-play-state: paused; fill: rgb(3, 3, 3); transform-origin: 0px 0px; transition-property: none; visibility: visible"></path></svg>