<?xml version="1.0" encoding="UTF-8"?>
<svg xmlns="http://www.w3.org/2000/svg" width="32" height="36" viewBox="0 0 32 36" style="transition: none !important; animation-duration: 0s !important; animation-delay: -0.0001s; animation-play-state: paused; fill: rgb(12, 87, 118); height: 40px; transition-property: none; visibility: visible; width: 40px"><path d="M15.8203 0C9.49465 0 4.21875 5.09555 4.21875 11.6016C4.21875 14.0767 4.96252 16.2838 6.38993 18.352L14.9325 31.6818C15.3469 32.3298 16.2946 32.3286 16.7081 31.6818L25.2878 18.3066C26.6844 16.3322 27.4219 14.0138 27.4219 11.6016C27.4219 5.20446 22.2174 0 15.8203 0ZM15.8203 16.875C12.9127 16.875 10.5469 14.5092 10.5469 11.6016C10.5469 8.69393 12.9127 6.32812 15.8203 6.32812C18.7279 6.32812 21.0938 8.69393 21.0938 11.6016C21.0938 14.5092 18.7279 16.875 15.8203 16.875Z" style="transition: none !important; animation-duration: 0s !important; animation-delay: -0.0001s; animation-play-state: paused; fill: rgb(12, 87, 118); transform-origin: 0px 0px; transition-property: none; visibility: visible"></path><path d="M24.0654 24.2363L18.7547 32.5393C17.38 34.6826 14.253 34.6756 12.8849 32.5414L7.56549 24.2385C2.8852 25.3206 0 27.3029 0 29.6718C0 33.7824 8.15119 36 15.8203 36C23.4894 36 31.6406 33.7824 31.6406 29.6718C31.6406 27.3012 28.7514 25.3179 24.0654 24.2363Z" style="transition: none !important; animation-duration: 0s !important; animation-delay: -0.0001s; animation-play-state: paused; fill: rgb(12, 87, 118); transform-origin: 0px 0px; transition-property: none; visibility: visible"></path></svg>