<?xml version="1.0" encoding="UTF-8"?>
<svg xmlns="http://www.w3.org/2000/svg" width="40" height="29" viewBox="0 0 40 29" style="transition: none !important; animation-duration: 0s !important; animation-delay: -0.0001s; animation-play-state: paused; fill: rgb(12, 87, 118); height: 40px; transition-property: none; visibility: visible; width: 40px"><path d="M33.3359 0C29.6563 0 26.6719 2.98438 26.6719 6.66406C26.6719 10.3438 29.6563 13.3281 33.3359 13.3281C37.0156 13.3281 40 10.3438 40 6.66406C40 2.98438 37.0156 0 33.3359 0ZM37.1484 3.97656L34.6875 11.0078C34.3906 11.8516 33.1719 11.7812 32.9844 10.9062L32.2812 7.72656L29.1016 7.02344C28.2266 6.82812 28.1562 5.60938 29 5.32031L36.0234 2.85156C36.7188 2.60156 37.3984 3.27344 37.1484 3.97656ZM25 16.1016L36.1641 27.2656C35.4375 27.9922 34.4375 28.4375 33.3359 28.4375H4C2.89844 28.4375 1.89844 27.9922 1.17188 27.2656L12.3359 16.1016L15.2891 19.0547C16.1953 19.9609 17.3906 20.4531 18.6719 20.4531C19.9531 20.4531 21.1484 19.9531 22.0547 19.0547L25 16.1016ZM37.3359 12.9453V24.4453C37.3359 25.2656 37.0859 26.0312 36.6641 26.6641L25.5469 15.5547L28.6484 12.4531C29.9297 13.4922 31.5547 14.1094 33.3281 14.1094C34.8047 14.1094 36.1797 13.6797 37.3359 12.9453ZM11.7891 15.5547L0.671875 26.6641C0.25 26.0312 0 25.2656 0 24.4375V6.66406C0 5.84375 0.25 5.07812 0.671875 4.44531L11.7891 15.5547ZM28.0703 11.9297L21.5 18.5C19.9375 20.0625 17.4062 20.0625 15.8438 18.5L1.17188 3.83594C1.89844 3.10937 2.89844 2.66406 4 2.66406H27.0547C26.3125 3.82031 25.8828 5.19531 25.8828 6.66406C25.8828 8.71875 26.7188 10.5781 28.0703 11.9297Z" style="transition: none !important; animation-duration: 0s !important; animation-delay: -0.0001s; animation-play-state: paused; fill: rgb(12, 87, 118); transform-origin: 0px 0px; transition-property: none; visibility: visible"></path></svg>