<?xml version="1.0" encoding="UTF-8"?>
<svg xmlns="http://www.w3.org/2000/svg" width="34" height="38" viewBox="0 0 34 38" style="transition: none !important; animation-duration: 0s !important; animation-delay: -0.0001s; animation-play-state: paused; fill: rgb(12, 87, 118); height: 40px; transition-property: none; visibility: visible; width: 40px"><path d="M27.459 18.9304C27.3572 18.8767 26.5426 18.4673 25.6911 18.5796L23.9201 17.2346V15.9061C24.5823 15.6223 25.1323 15.1277 25.4845 14.4991C25.6302 14.5397 25.7808 14.5605 25.932 14.5611C26.3725 14.5611 26.9083 14.3765 27.3916 13.6984C27.7642 13.1753 27.9493 12.6387 27.9416 12.1038C27.9389 11.8021 27.8324 11.5104 27.64 11.2779C28.4561 10.7135 30.1084 9.6427 30.6912 9.07576V12.4844C30.3189 12.5606 29.9813 12.755 29.7285 13.0387C29.4756 13.3223 29.3212 13.68 29.2882 14.0586C29.2451 14.5071 29.2569 14.9592 29.3234 15.4049C29.4099 16.0165 28.7618 16.3968 28.7361 16.4119C28.6695 16.4492 28.6151 16.505 28.5795 16.5725C28.5438 16.64 28.5285 16.7164 28.5352 16.7924C28.542 16.8685 28.5706 16.941 28.6176 17.0011C28.6646 17.0613 28.728 17.1066 28.8001 17.1316C29.3627 17.34 29.9558 17.4539 30.5555 17.4686C31.0466 17.4816 31.5314 17.3561 31.9545 17.1066C32.2094 16.9443 32.4189 16.72 32.5633 16.4546C32.7078 16.1893 32.7825 15.8916 32.7804 15.5895V14.1991C32.7797 13.8144 32.6523 13.4406 32.4178 13.1356C32.1833 12.8305 31.8549 12.6113 31.4833 12.5117V7.57054C31.4827 7.55096 31.4808 7.53145 31.4774 7.51216C31.4613 7.13159 31.3158 6.76792 31.065 6.48123C28.8497 3.98852 26.2121 1.90607 23.2734 0.32957C22.8679 0.11319 22.4154 0 21.9558 0C21.4962 0 21.0437 0.11319 20.6382 0.32957C17.6998 1.90591 15.0625 3.98817 12.8474 6.48066C12.57 6.7988 12.4219 7.20936 12.4324 7.63132C12.4429 8.05329 12.6111 8.456 12.904 8.75998C13.5501 9.42686 14.2562 10.0328 15.0135 10.5702L16.1639 11.4292C16.0397 11.6325 15.9728 11.8656 15.9702 12.1038C15.9625 12.6385 16.1476 13.1751 16.5203 13.6984C17.0022 14.3751 17.5352 14.5622 17.9773 14.5622C18.1298 14.5616 18.2815 14.5404 18.4284 14.4992C18.7549 15.0851 19.2552 15.5552 19.8602 15.8447V17.1819L18.2043 17.981C18.0735 17.7893 17.902 17.6288 17.7021 17.511C17.5022 17.3932 17.2787 17.3209 17.0476 17.2993C16.6533 17.2666 16.2564 17.3175 15.8832 17.4489C15.7946 17.3563 9.3655 10.0817 8.03271 8.57353C7.96287 8.49473 7.91913 8.39625 7.90749 8.2916C7.89584 8.18696 7.91686 8.08127 7.96765 7.98905C9.41721 5.3703 10.1583 3.19756 10.5768 1.37408C11.1621 1.51971 11.7101 1.7873 12.1848 2.15935C12.6596 2.53139 13.0504 2.99949 13.3317 3.53302C13.4037 3.66753 13.4274 3.82258 13.3991 3.97246C13.3708 4.12233 13.2921 4.25803 13.1761 4.35702C11.8065 5.53857 10.5604 6.85605 9.45692 8.28921C9.39082 8.37263 9.35977 8.4785 9.37033 8.58441C9.38088 8.69033 9.43222 8.78798 9.51349 8.85672C9.55469 8.88927 9.60196 8.9133 9.65254 8.92742C9.70313 8.94153 9.75601 8.94544 9.80812 8.93893C9.86022 8.93241 9.91051 8.91559 9.95606 8.88945C10.0016 8.86332 10.0415 8.82838 10.0734 8.78668C11.1474 7.39011 12.3607 6.10648 13.6946 4.95564C13.947 4.73958 14.118 4.44366 14.1791 4.11703C14.2402 3.7904 14.1877 3.45269 14.0304 3.16C13.5967 2.34788 12.5398 0.923443 10.3333 0.5072C10.2805 0.497242 10.2262 0.498135 10.1738 0.509822C10.1213 0.52151 10.0718 0.543749 10.0282 0.575185C9.98467 0.60662 9.94794 0.646595 9.92031 0.692676C9.89268 0.738757 9.87471 0.78998 9.8675 0.843226C9.86649 0.851033 9.83605 1.06091 9.74973 1.43925C9.51349 1.41487 9.27576 1.40821 9.03853 1.41934C8.72318 1.43396 8.42344 1.56081 8.19339 1.77698C7.96334 1.99316 7.81811 2.28443 7.78391 2.59826C7.68594 3.49727 7.34493 5.30672 6.18128 7.48354C5.73795 7.48973 5.31274 7.66046 4.98822 7.96257C4.45395 8.45992 3.97293 9.01155 3.55293 9.60853C3.37451 9.86185 3.26411 10.1567 3.23227 10.4649C3.20044 10.7731 3.24824 11.0843 3.37111 11.3688C2.49458 12.3017 1.54222 13.1604 0.523824 13.936C0.268706 14.1315 0.092541 14.4123 0.0275893 14.7271C-0.0373624 15.0419 0.0132462 15.3695 0.170147 15.65C0.290833 15.8618 0.43191 16.0612 0.591368 16.2456C0.472345 16.3624 0.352605 16.4789 0.232148 16.5949C0.169611 16.655 0.128504 16.7339 0.115138 16.8195C0.101771 16.9052 0.116883 16.9929 0.158155 17.0691C0.581867 17.7686 1.1527 18.3675 1.83105 18.8243C2.5094 19.2811 3.27902 19.5848 4.08649 19.7143C4.46732 19.7682 4.8544 19.6756 5.1697 19.4553C5.32654 19.3419 5.45917 19.1983 5.55982 19.033C5.66048 18.8677 5.72713 18.6839 5.75588 18.4925C6.00115 16.9816 6.42311 15.5046 7.01309 14.0922C7.30473 14.1444 7.57188 14.2889 7.7752 14.5044L9.43667 16.2758C9.49573 20.2037 8.95016 24.0539 7.53761 24.9924C6.25697 25.8438 5.6545 25.1351 5.58266 25.0407C5.52247 24.9451 4.78762 23.7328 4.64246 21.3325C4.63947 21.2806 4.62625 21.2297 4.60356 21.183C4.58088 21.1362 4.54918 21.0943 4.51029 21.0598C4.47139 21.0253 4.42606 20.9989 4.37691 20.9819C4.32775 20.965 4.27574 20.9579 4.22385 20.9611C4.12078 20.9717 4.02544 21.0206 3.95668 21.0981C3.88793 21.1757 3.85076 21.2761 3.85252 21.3797C3.74289 23.4571 3.81858 28.0471 8.41411 27.5572C8.89608 27.5058 9.39096 27.4942 9.86626 27.6573C14.9935 29.4175 14.4203 36.9907 14.4138 37.0671C14.405 37.1717 14.4381 37.2756 14.5059 37.3558C14.5736 37.436 14.6704 37.486 14.7751 37.4949C14.7864 37.4958 14.7977 37.4962 14.809 37.4962H33.5166C33.6209 37.4962 33.7209 37.4551 33.795 37.3818C33.8692 37.3086 33.9114 37.209 33.9126 37.1048C34.0006 29.3539 32.2691 24.8452 30.8013 22.4278C29.2194 19.8245 27.6054 19.0012 27.459 18.9304ZM4.97295 18.3725C4.95982 18.4604 4.92926 18.5449 4.88306 18.6208C4.83686 18.6968 4.77595 18.7628 4.7039 18.8149C4.63407 18.8661 4.55473 18.9029 4.47052 18.9231C4.3863 18.9433 4.29891 18.9465 4.21344 18.9325C2.92675 18.7146 1.77788 17.9981 1.0161 16.9385C2.0511 15.9305 3.02716 14.8837 3.92086 13.8235L4.1055 13.6125L5.69105 15.3981C5.37307 16.3689 5.13294 17.3635 4.97295 18.3725ZM8.38718 13.9992C8.18317 13.7748 7.9351 13.5948 7.65844 13.4705C7.38179 13.3462 7.08249 13.2803 6.77923 13.2769C6.59486 13.2776 6.41218 13.2417 6.24188 13.171C6.07157 13.1004 5.91704 12.9965 5.78733 12.8655L4.30259 11.3585C4.13664 11.1887 4.03555 10.9661 4.01694 10.7294C3.99833 10.4928 4.06339 10.2571 4.20077 10.0635C4.58923 9.51159 5.03412 9.00167 5.52824 8.54196C5.7165 8.36747 5.9643 8.27147 6.22098 8.27357C6.47766 8.27567 6.72385 8.37572 6.90923 8.55328L8.31069 10.0766C8.67338 10.471 8.91445 10.9617 9.00492 11.4898C9.2126 12.6767 9.34463 13.8757 9.40024 15.0793L8.38718 13.9992ZM25.0681 19.1005L24.2825 20.4243L22.4874 19.0276L23.5597 17.9551L25.0681 19.1005ZM23.875 21.1106L22.9777 22.6226L22.6769 20.1788L23.875 21.1106ZM21.8905 18.5044L20.8903 17.5042L23.1283 16.5221V17.2665L21.8905 18.5044ZM26.8296 11.6349C26.9245 11.6742 27.0055 11.7409 27.0625 11.8264C27.1194 11.9118 27.1498 12.0123 27.1495 12.115C27.1548 12.4779 27.0192 12.856 26.7464 13.239C26.4551 13.6479 26.1388 13.819 25.7853 13.7576C25.806 13.6837 25.8252 13.6082 25.8419 13.5301C25.9374 13.0829 25.9731 12.625 25.9481 12.1684C26.0412 12.0038 26.158 11.8538 26.2948 11.7231C26.3651 11.6571 26.4535 11.6134 26.5486 11.5977C26.6438 11.582 26.7415 11.5949 26.8294 11.6349H26.8296ZM17.1656 13.2389C16.8929 12.8558 16.7573 12.4777 16.7625 12.115C16.7623 12.0123 16.7926 11.9118 16.8496 11.8263C16.9066 11.7408 16.9877 11.6741 17.0826 11.6348C17.1703 11.5948 17.268 11.5819 17.3631 11.5976C17.4583 11.6133 17.5466 11.6569 17.6169 11.7229C17.7534 11.8532 17.87 12.0027 17.9631 12.1667C17.9383 12.6239 17.9742 13.0823 18.0699 13.53C18.0869 13.608 18.1064 13.6834 18.1265 13.7573C17.774 13.819 17.4571 13.6482 17.1656 13.2389ZM17.4598 8.55803L17.5206 7.46057C17.5341 7.21045 17.6447 6.97548 17.8288 6.80571C18.4961 6.20861 19.2784 5.75429 20.1277 5.47066C21.3129 5.06607 22.5989 5.06607 23.7841 5.47066C24.6334 5.75427 25.4157 6.2086 26.083 6.80571C26.2672 6.97545 26.3778 7.21044 26.3912 7.46057L26.452 8.55803C25.6842 8.31704 24.1793 7.96393 21.956 7.96393C19.7326 7.96393 18.2278 8.31715 17.4598 8.55803ZM18.8438 13.3618C18.3786 11.4145 19.5 9.52753 19.9405 8.86633C21.2752 8.64626 22.6369 8.64626 23.9716 8.86633C24.4009 9.51123 25.4989 11.4017 25.0681 13.3618C24.5083 15.9051 19.5378 16.2667 18.8438 13.3618ZM20.1753 17.9093L21.2931 19.0272L19.6025 20.3425L18.6136 18.6629L20.1753 17.9093ZM21.2006 20.1026L20.9449 22.6225L20.0078 21.0308L21.2006 20.1026ZM22.2802 26.9675C22.2494 27.0178 22.2063 27.0593 22.1549 27.0881C22.1035 27.1169 22.0455 27.132 21.9866 27.132C21.9277 27.132 21.8698 27.1169 21.8184 27.0881C21.767 27.0593 21.7238 27.0178 21.693 26.9675L16.2921 18.1635C16.5157 18.1067 16.7461 18.0812 16.9768 18.0876C17.101 18.0991 17.2207 18.14 17.326 18.2069C17.4313 18.2738 17.5192 18.3647 17.5824 18.4723L21.6148 25.3209C21.6498 25.3802 21.6995 25.4293 21.7593 25.4635C21.819 25.4977 21.8866 25.5157 21.9554 25.5158C22.0242 25.516 22.0918 25.4981 22.1516 25.4641C22.2115 25.4302 22.2614 25.3812 22.2965 25.322L25.8357 19.3588C26.1794 19.3444 26.5231 19.3898 26.8514 19.4928L22.2802 26.9675Z" style="transition: none !important; animation-duration: 0s !important; animation-delay: -0.0001s; animation-play-state: paused; fill: rgb(12, 87, 118); transform-origin: 0px 0px; transition-property: none; visibility: visible"></path><path d="M20.6667 11.9943C20.7717 11.9943 20.8724 11.9526 20.9467 11.8783C21.021 11.8041 21.0627 11.7033 21.0627 11.5983V11.231C21.0627 11.1259 21.021 11.0252 20.9467 10.9509C20.8724 10.8767 20.7717 10.835 20.6667 10.835C20.5617 10.835 20.4609 10.8767 20.3867 10.9509C20.3124 11.0252 20.2707 11.1259 20.2707 11.231V11.5983C20.2707 11.7033 20.3124 11.8041 20.3867 11.8783C20.4609 11.9526 20.5617 11.9943 20.6667 11.9943ZM23.2451 11.9943C23.3502 11.9943 23.4509 11.9526 23.5252 11.8783C23.5994 11.8041 23.6411 11.7033 23.6411 11.5983V11.231C23.6411 11.1259 23.5994 11.0252 23.5252 10.9509C23.4509 10.8767 23.3502 10.835 23.2451 10.835C23.1401 10.835 23.0394 10.8767 22.9651 10.9509C22.8909 11.0252 22.8492 11.1259 22.8492 11.231V11.5983C22.8492 11.7033 22.8909 11.8041 22.9651 11.8783C23.0394 11.9526 23.1401 11.9943 23.2451 11.9943ZM23.5123 13.9155C23.5777 13.8345 23.6086 13.731 23.5983 13.6274C23.5879 13.5238 23.5372 13.4284 23.4571 13.3619C23.3769 13.2954 23.2738 13.2632 23.1701 13.2722C23.0663 13.2812 22.9703 13.3306 22.9028 13.4099C22.8575 13.4641 22.6006 13.7344 21.9506 13.7344C21.3006 13.7344 21.0433 13.4641 20.9983 13.4098C20.9651 13.3698 20.9243 13.3367 20.8783 13.3124C20.8323 13.2881 20.782 13.2732 20.7302 13.2683C20.6256 13.2586 20.5215 13.2908 20.4406 13.3579C20.3598 13.4249 20.3089 13.5214 20.2992 13.626C20.2894 13.7305 20.3216 13.8347 20.3887 13.9155C20.5411 14.0992 20.9984 14.5265 21.9506 14.5265C22.9028 14.5265 23.36 14.0993 23.5123 13.9155Z" style="transition: none !important; animation-duration: 0s !important; animation-delay: -0.0001s; animation-play-state: paused; fill: rgb(12, 87, 118); transform-origin: 0px 0px; transition-property: none; visibility: visible"></path></svg>