<?xml version="1.0" encoding="UTF-8"?>
<svg xmlns="http://www.w3.org/2000/svg" width="35" height="34" viewBox="0 0 35 34" style="transition: none !important; animation-duration: 0s !important; animation-delay: -0.0001s; animation-play-state: paused; fill: rgb(12, 87, 118); height: 36px; transition-property: none; visibility: visible; width: 36px"><path d="M1.87389 11.9812C2.39774 12.3353 2.99607 12.564 3.62253 12.6496C4.24898 12.7353 4.88674 12.6755 5.48639 12.475L7.74264 11.7313C8.17107 11.5646 8.55284 11.2969 8.85538 10.9508C9.15793 10.6047 9.37228 10.1906 9.48014 9.74375C10.1051 7.78125 14.8864 6.31875 16.9489 6.19375H18.1301C20.1551 6.33125 24.8801 7.76875 25.5051 9.7C25.6117 10.153 25.8266 10.5734 26.1314 10.925C26.4362 11.2766 26.8218 11.549 27.2551 11.7188L29.4864 12.4563C30.0933 12.6591 30.7388 12.7196 31.3729 12.6329C32.0069 12.5462 32.6125 12.3146 33.1426 11.9562C33.9793 11.407 34.5759 10.5602 34.8114 9.5875C35.0275 8.55649 34.9891 7.48834 34.6994 6.47553C34.4097 5.46273 33.8775 4.5358 33.1489 3.775C30.9676 1.59375 21.0426 0 17.4989 0C13.9551 0 4.03014 1.59375 1.83639 3.7875C1.11058 4.54508 0.579531 5.46753 0.288862 6.47562C-0.00180662 7.48371 -0.0434054 8.54729 0.167639 9.575C0.407307 10.566 1.01802 11.4272 1.87389 11.9812Z" style="transition: none !important; animation-duration: 0s !important; animation-delay: -0.0001s; animation-play-state: paused; fill: rgb(12, 87, 118); transform-origin: 0px 0px; transition-property: none; visibility: visible"></path><path d="M4.7125 33.7501H30.2875C31.5373 33.7501 32.736 33.2536 33.6197 32.3698C34.5035 31.4861 35 30.2874 35 29.0376V28.6064C35.0027 25.4512 33.9806 22.3805 32.0875 19.8564L28.525 15.1064C28.2051 14.6835 27.7913 14.3408 27.3162 14.1054C26.8411 13.8701 26.3177 13.7484 25.7875 13.7501H25.75C25.3657 13.7507 24.9938 13.6146 24.7006 13.3662C24.4075 13.1177 24.2123 12.773 24.15 12.3939L24.05 11.7689C23.9852 11.3269 23.7812 10.9171 23.4677 10.599C23.1541 10.281 22.7472 10.0712 22.3063 10.0001C22.0174 9.96062 21.7234 9.98378 21.4443 10.068C21.1651 10.1523 20.9074 10.2956 20.6886 10.4883C20.4698 10.681 20.2951 10.9186 20.1762 11.1848C20.0574 11.4511 19.9973 11.7398 20 12.0314V12.1314C20 12.3439 19.9581 12.5544 19.8768 12.7508C19.7954 12.9472 19.6762 13.1257 19.5259 13.276C19.3756 13.4263 19.1971 13.5455 19.0007 13.6269C18.8043 13.7082 18.5938 13.7501 18.3813 13.7501H16.6188C16.1894 13.7501 15.7777 13.5796 15.4741 13.276C15.1705 12.9724 15 12.5607 15 12.1314C15.0146 11.6247 14.8455 11.1299 14.5238 10.7382C14.2022 10.3465 13.7498 10.0844 13.25 10.0001C12.7266 9.92774 12.1956 10.0622 11.7697 10.3749C11.3437 10.6876 11.0564 11.154 10.9688 11.6751L10.85 12.3751C10.7917 12.7577 10.5983 13.1068 10.3048 13.359C10.0112 13.6113 9.63703 13.75 9.25 13.7501H9.20625C8.67498 13.7499 8.15096 13.8734 7.67578 14.111C7.20059 14.3486 6.78732 14.6937 6.46875 15.1189L2.90625 19.8689C1.01795 22.3903 -0.00180095 25.4562 2.38766e-06 28.6064V29.0376C2.38766e-06 30.2874 0.496497 31.4861 1.38026 32.3698C2.26403 33.2536 3.46267 33.7501 4.7125 33.7501ZM17.025 16.2501C18.2676 16.1647 19.5101 16.4184 20.6197 16.9842C21.7293 17.55 22.6644 18.4067 23.325 19.4626C23.4911 19.7321 23.5821 20.0411 23.5886 20.3576C23.595 20.674 23.5167 20.9865 23.3618 21.2626C23.2069 21.5386 22.981 21.7682 22.7075 21.9276C22.434 22.0869 22.1228 22.1702 21.8063 22.1689H21.5625C21.3139 22.1689 21.0754 22.2676 20.8996 22.4434C20.7238 22.6193 20.625 22.8577 20.625 23.1064C20.625 23.355 20.7238 23.5934 20.8996 23.7693C21.0754 23.9451 21.3139 24.0439 21.5625 24.0439H21.8063C22.1201 24.043 22.4286 24.1253 22.7002 24.2825C22.9719 24.4397 23.197 24.666 23.3526 24.9386C23.5083 25.2111 23.5889 25.5201 23.5862 25.8339C23.5836 26.1477 23.4977 26.4552 23.3375 26.7251C22.5382 28.0135 21.3353 29.0016 19.9162 29.5355C18.4971 30.0694 16.9412 30.1191 15.4909 29.677C14.0405 29.2349 12.777 28.3258 11.8969 27.0911C11.0169 25.8563 10.5697 24.3653 10.625 22.8501C10.7011 21.158 11.3942 19.5523 12.5733 18.3363C13.7524 17.1203 15.336 16.3782 17.025 16.2501Z" style="transition: none !important; animation-duration: 0s !important; animation-delay: -0.0001s; animation-play-state: paused; fill: rgb(12, 87, 118); transform-origin: 0px 0px; transition-property: none; visibility: visible"></path><path d="M17.5 20C18.0178 20 18.4375 19.5803 18.4375 19.0625C18.4375 18.5447 18.0178 18.125 17.5 18.125C16.9822 18.125 16.5625 18.5447 16.5625 19.0625C16.5625 19.5803 16.9822 20 17.5 20Z" style="transition: none !important; animation-duration: 0s !important; animation-delay: -0.0001s; animation-play-state: paused; fill: rgb(12, 87, 118); transform-origin: 0px 0px; transition-property: none; visibility: visible"></path><path d="M17.5 28.125C18.0178 28.125 18.4375 27.7053 18.4375 27.1875C18.4375 26.6697 18.0178 26.25 17.5 26.25C16.9822 26.25 16.5625 26.6697 16.5625 27.1875C16.5625 27.7053 16.9822 28.125 17.5 28.125Z" style="transition: none !important; animation-duration: 0s !important; animation-delay: -0.0001s; animation-play-state: paused; fill: rgb(12, 87, 118); transform-origin: 0px 0px; transition-property: none; visibility: visible"></path><path d="M21.0278 20.9149C21.3939 20.5487 21.3939 19.9552 21.0278 19.589C20.6617 19.2229 20.0681 19.2229 19.702 19.589C19.3359 19.9552 19.3359 20.5487 19.702 20.9149C20.0681 21.281 20.6617 21.281 21.0278 20.9149Z" style="transition: none !important; animation-duration: 0s !important; animation-delay: -0.0001s; animation-play-state: paused; fill: rgb(12, 87, 118); transform-origin: 0px 0px; transition-property: none; visibility: visible"></path><path d="M15.2856 26.6644C15.6517 26.2983 15.6517 25.7047 15.2856 25.3386C14.9195 24.9724 14.3259 24.9724 13.9598 25.3386C13.5937 25.7047 13.5937 26.2983 13.9598 26.6644C14.3259 27.0305 14.9195 27.0305 15.2856 26.6644Z" style="transition: none !important; animation-duration: 0s !important; animation-delay: -0.0001s; animation-play-state: paused; fill: rgb(12, 87, 118); transform-origin: 0px 0px; transition-property: none; visibility: visible"></path><path d="M13.4375 24.0625C13.9553 24.0625 14.375 23.6428 14.375 23.125C14.375 22.6072 13.9553 22.1875 13.4375 22.1875C12.9197 22.1875 12.5 22.6072 12.5 23.125C12.5 23.6428 12.9197 24.0625 13.4375 24.0625Z" style="transition: none !important; animation-duration: 0s !important; animation-delay: -0.0001s; animation-play-state: paused; fill: rgb(12, 87, 118); transform-origin: 0px 0px; transition-property: none; visibility: visible"></path><path d="M21.0317 26.661C21.3978 26.2948 21.3978 25.7013 21.0317 25.3351C20.6656 24.969 20.072 24.969 19.7059 25.3351C19.3398 25.7013 19.3398 26.2948 19.7059 26.661C20.072 27.0271 20.6656 27.0271 21.0317 26.661Z" style="transition: none !important; animation-duration: 0s !important; animation-delay: -0.0001s; animation-play-state: paused; fill: rgb(12, 87, 118); transform-origin: 0px 0px; transition-property: none; visibility: visible"></path><path d="M15.2817 20.9173C15.6478 20.5512 15.6478 19.9576 15.2817 19.5915C14.9156 19.2254 14.322 19.2254 13.9559 19.5915C13.5898 19.9576 13.5898 20.5512 13.9559 20.9173C14.322 21.2834 14.9156 21.2834 15.2817 20.9173Z" style="transition: none !important; animation-duration: 0s !important; animation-delay: -0.0001s; animation-play-state: paused; fill: rgb(12, 87, 118); transform-origin: 0px 0px; transition-property: none; visibility: visible"></path><path d="M17.5 24.375C18.1904 24.375 18.75 23.8154 18.75 23.125C18.75 22.4346 18.1904 21.875 17.5 21.875C16.8096 21.875 16.25 22.4346 16.25 23.125C16.25 23.8154 16.8096 24.375 17.5 24.375Z" style="transition: none !important; animation-duration: 0s !important; animation-delay: -0.0001s; animation-play-state: paused; fill: rgb(12, 87, 118); transform-origin: 0px 0px; transition-property: none; visibility: visible"></path></svg>