<?xml version="1.0" encoding="UTF-8"?>
<svg xmlns="http://www.w3.org/2000/svg" viewBox="0 0 75 64" style="transition: none !important; animation-duration: 0s !important; animation-delay: -0.0001s; animation-play-state: paused; fill: rgb(3, 3, 3); height: 51px; transition-property: none; visibility: visible; width: 51px"><path d="M52.925 4.80623L47.35 0.731222C46.025 -0.243741 44.25 -0.243741 42.925 0.731222L21.5375 16.3812C20.5625 17.0938 20 18.1938 20 19.4062C20 20.6188 20.5625 21.7188 21.5375 22.4313L28.8875 27.8095V38.7563C28.8875 41.5187 31.1375 43.7563 33.8875 43.7563H47.725C47.8875 42.8938 48.125 42.0563 48.4375 41.2563H33.8875C32.5125 41.2563 31.3875 40.1313 31.3875 38.7563V29.6388L42.925 38.0812C43.5875 38.5687 44.3625 38.8188 45.1375 38.8188C45.9126 38.8188 46.6876 38.5687 47.35 38.0812L58.8875 29.641V32.7188C59.7061 32.5727 60.5438 32.499 61.3875 32.5063V27.8121L65.1375 25.0688C64.876 24.2537 65.0449 18.4621 65 17.5063C65 16.3313 65.325 15.2313 65.9 14.2938L62.3375 11.6937C56.7237 9.57726 50.1734 13.675 49.1626 19.4938C48.8126 21.5039 46.8129 22.893 44.8 22.5063C42.8044 22.1733 41.391 20.1163 41.7876 18.1312C42.8875 12.1687 47.325 7.03127 52.925 4.80623Z" style="transition: none !important; animation-duration: 0s !important; animation-delay: -0.0001s; animation-play-state: paused; fill: rgb(3, 3, 3); transform-origin: 0px 0px; transition-property: none; visibility: visible"></path><path d="M72.4963 13.9855C65.2612 1.62975 47.1762 4.5946 44.2493 18.5886C43.9805 20.2016 46.3779 20.6582 46.7078 19.04C48.9863 7.95376 63.0199 4.93137 69.6436 14.1319C68.9101 14.4828 68.3156 15.0634 67.9395 15.7822L67.6 15.5313C67.6925 15.6654 67.764 15.81 67.8497 15.9475C67.6304 16.4237 67.5 16.9486 67.5 17.5063V23.7563C67.6289 28.6995 74.8708 28.7015 75 23.7562V17.5063C75 15.8775 73.95 14.5021 72.4963 13.9855Z" style="transition: none !important; animation-duration: 0s !important; animation-delay: -0.0001s; animation-play-state: paused; fill: rgb(3, 3, 3); transform-origin: 0px 0px; transition-property: none; visibility: visible"></path><path d="M7.5 52.5063C4.73755 52.5063 2.5 50.2687 2.5 47.5063V31.2563H26.25C26.9403 31.2563 27.5 30.6966 27.5 30.0063C27.5 29.316 26.9403 28.7563 26.25 28.7563H2.5V17.5063C2.5 14.7438 4.73755 12.5063 7.5 12.5063H22.6L26.025 10.0063H7.5C3.3625 10.0063 0 13.3688 0 17.5063V47.5063C0 51.6438 3.3625 55.0063 7.5 55.0063H50.6375C50 54.2313 49.45 53.3937 49 52.5063H7.5Z" style="transition: none !important; animation-duration: 0s !important; animation-delay: -0.0001s; animation-play-state: paused; fill: rgb(3, 3, 3); transform-origin: 0px 0px; transition-property: none; visibility: visible"></path><path d="M9.375 16.2563C3.59291 16.4403 3.59466 24.8233 9.37515 25.0063H20.8125C17.7939 23.2621 16.4968 19.2816 18.3625 16.2563H9.375Z" style="transition: none !important; animation-duration: 0s !important; animation-delay: -0.0001s; animation-play-state: paused; fill: rgb(3, 3, 3); transform-origin: 0px 0px; transition-property: none; visibility: visible"></path><path d="M26.25 36.2563C27.8876 36.2305 27.8973 33.7841 26.25 33.7563H8.75C7.11235 33.7821 7.10266 36.2284 8.75007 36.2563H26.25Z" style="transition: none !important; animation-duration: 0s !important; animation-delay: -0.0001s; animation-play-state: paused; fill: rgb(3, 3, 3); transform-origin: 0px 0px; transition-property: none; visibility: visible"></path><path d="M27.5 40.0063C27.5 39.3154 26.9403 38.7563 26.25 38.7563H15C14.3097 38.7563 13.75 39.3154 13.75 40.0063C13.75 40.6972 14.3097 41.2563 15 41.2563H26.25C26.9403 41.2563 27.5 40.6972 27.5 40.0063Z" style="transition: none !important; animation-duration: 0s !important; animation-delay: -0.0001s; animation-play-state: paused; fill: rgb(3, 3, 3); transform-origin: 0px 0px; transition-property: none; visibility: visible"></path><path d="M61.25 35.0063C50.1232 35.059 45.8769 49.5085 55 55.6063V62.5063C54.9722 63.4175 56.0223 64.05 56.8125 63.6187L61.25 61.4063C61.5554 61.5053 66.0403 63.9352 66.25 63.7563C66.9179 63.77 67.5137 63.1878 67.5 62.5063V55.6063C76.6277 49.5042 72.3701 35.0568 61.25 35.0063ZM67.5 52.3688C62.2428 57.9511 52.3944 54.0042 52.5001 46.2561C52.5 41.4313 56.425 37.5063 61.25 37.5063C68.9421 37.448 72.8944 46.9974 67.5 52.3688Z" style="transition: none !important; animation-duration: 0s !important; animation-delay: -0.0001s; animation-play-state: paused; fill: rgb(3, 3, 3); transform-origin: 0px 0px; transition-property: none; visibility: visible"></path><path d="M61.25 40.0063C57.804 40.0063 55 42.8102 55 46.2563C55.2937 54.5282 67.2075 54.526 67.5 46.2561C67.5 42.8103 64.696 40.0063 61.25 40.0063Z" style="transition: none !important; animation-duration: 0s !important; animation-delay: -0.0001s; animation-play-state: paused; fill: rgb(3, 3, 3); transform-origin: 0px 0px; transition-property: none; visibility: visible"></path><path d="M7.50007 50.0063H13.75C14.4403 50.0063 15 49.4472 15 48.7563C15 48.0654 14.4403 47.5063 13.75 47.5063H7.5C5.85876 47.5332 5.85564 49.9788 7.50007 50.0063Z" style="transition: none !important; animation-duration: 0s !important; animation-delay: -0.0001s; animation-play-state: paused; fill: rgb(3, 3, 3); transform-origin: 0px 0px; transition-property: none; visibility: visible"></path><path d="M18.75 47.5063C17.1088 47.5332 17.1056 49.9788 18.7501 50.0063H25C25.6903 50.0063 26.25 49.4472 26.25 48.7563C26.25 48.0654 25.6903 47.5063 25 47.5063H18.75Z" style="transition: none !important; animation-duration: 0s !important; animation-delay: -0.0001s; animation-play-state: paused; fill: rgb(3, 3, 3); transform-origin: 0px 0px; transition-property: none; visibility: visible"></path><path d="M30 47.5063C28.3588 47.5332 28.3556 49.9788 30.0001 50.0063H36.25C36.9403 50.0063 37.5 49.4472 37.5 48.7563C37.5 48.0654 36.9403 47.5063 36.25 47.5063H30Z" style="transition: none !important; animation-duration: 0s !important; animation-delay: -0.0001s; animation-play-state: paused; fill: rgb(3, 3, 3); transform-origin: 0px 0px; transition-property: none; visibility: visible"></path></svg>