<?xml version="1.0" encoding="UTF-8"?>
<svg xmlns="http://www.w3.org/2000/svg" viewBox="0 0 80 80" style="transition: none !important; animation-duration: 0s !important; animation-delay: -0.0001s; animation-play-state: paused; fill: rgb(3, 3, 3); height: 50px; transition-property: none; visibility: visible; width: 50px"><path d="M59.0922 40.2521C58.907 40.1546 57.4259 39.4102 55.8778 39.6144L52.6578 37.1689V34.7535C53.8619 34.2374 54.8618 33.3381 55.5021 32.1953C55.7672 32.269 56.0409 32.3069 56.3159 32.308C57.1168 32.308 58.091 31.9723 58.9696 30.7395C59.6472 29.7883 59.9837 28.8126 59.9697 27.8402C59.9647 27.2916 59.7711 26.7613 59.4213 26.3386C60.9051 25.3123 63.9093 23.3654 64.9689 22.3346V28.5322C64.2921 28.6707 63.6781 29.0242 63.2185 29.5399C62.7588 30.0556 62.4781 30.7061 62.4181 31.3943C62.3397 32.2098 62.3612 33.0319 62.4821 33.8422C62.6392 34.9541 61.4609 35.6457 61.4142 35.673C61.2931 35.7409 61.1942 35.8423 61.1294 35.9651C61.0646 36.0878 61.0367 36.2267 61.049 36.365C61.0613 36.5032 61.1133 36.635 61.1987 36.7444C61.2842 36.8538 61.3995 36.9361 61.5307 36.9815C62.5534 37.3605 63.6319 37.5676 64.7222 37.5944C65.6151 37.618 66.4965 37.3899 67.2658 36.9361C67.7292 36.6411 68.1101 36.2332 68.3728 35.7508C68.6354 35.2683 68.7713 34.727 68.7675 34.1777V31.6498C68.7663 30.9503 68.5345 30.2707 68.1082 29.7161C67.6819 29.1615 67.0847 28.7629 66.4091 28.5818V19.5979C66.4081 19.5623 66.4045 19.5268 66.3984 19.4917C66.369 18.7998 66.1045 18.1386 65.6485 17.6173C61.6207 13.0851 56.825 9.29883 51.482 6.43247C50.7447 6.03905 49.922 5.83325 49.0864 5.83325C48.2508 5.83325 47.428 6.03905 46.6908 6.43247C41.3482 9.29855 36.5531 13.0845 32.5256 17.6163C32.0213 18.1947 31.752 18.9412 31.7711 19.7084C31.7901 20.4756 32.096 21.2078 32.6285 21.7605C33.8033 22.973 35.0872 24.0748 36.4639 25.0518L38.5556 26.6136C38.3299 26.9833 38.2082 27.4071 38.2034 27.8402C38.1894 28.8124 38.526 29.7879 39.2036 30.7395C40.0799 31.9699 41.049 32.3099 41.8527 32.3099C42.13 32.3088 42.4059 32.2704 42.6729 32.1955C43.2666 33.2607 44.1762 34.1154 45.2761 34.6418V37.0731L42.2656 38.526C42.0277 38.1775 41.7159 37.8857 41.3524 37.6715C40.9888 37.4572 40.5825 37.3258 40.1624 37.2866C39.4454 37.227 38.7239 37.3197 38.0452 37.5586C37.8842 37.3901 26.1949 24.1636 23.7717 21.4215C23.6447 21.2782 23.5652 21.0992 23.544 20.9089C23.5228 20.7186 23.561 20.5265 23.6534 20.3588C26.2889 15.5974 27.6363 11.647 28.3973 8.33158C29.4615 8.59636 30.4578 9.08289 31.321 9.75933C32.1841 10.4358 32.8948 11.2869 33.4063 12.2569C33.5371 12.5015 33.5803 12.7834 33.5288 13.0559C33.4773 13.3284 33.3342 13.5751 33.1232 13.7551C30.6332 15.9034 28.3675 18.2988 26.3611 20.9045C26.241 21.0562 26.1845 21.2487 26.2037 21.4413C26.2229 21.6338 26.3162 21.8114 26.464 21.9364C26.5389 21.9956 26.6249 22.0393 26.7168 22.0649C26.8088 22.0906 26.9049 22.0977 26.9997 22.0858C27.0944 22.074 27.1859 22.0434 27.2687 21.9959C27.3515 21.9484 27.424 21.8849 27.4821 21.809C29.4347 19.2698 31.6407 16.9359 34.066 14.8435C34.525 14.4507 34.8359 13.9126 34.9469 13.3188C35.058 12.7249 34.9626 12.1109 34.6765 11.5787C33.8881 10.1021 31.9663 7.51224 27.9546 6.75543C27.8586 6.73733 27.7599 6.73895 27.6645 6.7602C27.5692 6.78145 27.4791 6.82189 27.3999 6.87904C27.3207 6.9362 27.2539 7.00888 27.2037 7.09266C27.1534 7.17645 27.1208 7.26958 27.1077 7.36639C27.1058 7.38058 27.0505 7.76218 26.8935 8.45007C26.464 8.40574 26.0318 8.39364 25.6004 8.41386C25.0271 8.44046 24.4821 8.67108 24.0638 9.06413C23.6455 9.45717 23.3815 9.98676 23.3193 10.5574C23.1412 12.1919 22.5212 15.4818 20.4054 19.4397C19.5994 19.4509 18.8263 19.7614 18.2362 20.3107C17.2648 21.2149 16.3902 22.2179 15.6266 23.3033C15.3022 23.7639 15.1015 24.3 15.0436 24.8604C14.9857 25.4207 15.0726 25.9866 15.296 26.5037C13.7023 28.2 11.9708 29.7613 10.1192 31.1715C9.6553 31.5269 9.335 32.0375 9.21691 32.6098C9.09882 33.1821 9.19083 33.7778 9.47611 34.2878C9.69554 34.6728 9.95204 35.0355 10.242 35.3706C10.0256 35.5831 9.80785 35.7948 9.58884 36.0059C9.47513 36.115 9.40039 36.2585 9.37609 36.4142C9.35179 36.57 9.37926 36.7294 9.4543 36.868C10.2247 38.1398 11.2626 39.2287 12.4959 40.0592C13.7293 40.8897 15.1286 41.4419 16.5967 41.6775C17.2892 41.7753 17.9929 41.6071 18.5662 41.2066C18.8514 41.0004 19.0925 40.7393 19.2755 40.4387C19.4585 40.1381 19.5797 39.804 19.632 39.456C20.0779 36.7088 20.8451 34.0235 21.9178 31.4554C22.4481 31.5504 22.9338 31.8131 23.3035 32.205L26.3243 35.4256C26.4317 42.5672 25.4398 49.5677 22.8715 51.274C20.5431 52.822 19.4477 51.5334 19.317 51.3619C19.2076 51.188 17.8715 48.9839 17.6076 44.6195C17.6021 44.5252 17.5781 44.4328 17.5369 44.3477C17.4956 44.2627 17.438 44.1866 17.3673 44.1239C17.2965 44.0611 17.2141 44.013 17.1248 43.9822C17.0354 43.9514 16.9408 43.9386 16.8465 43.9444C16.6591 43.9637 16.4857 44.0526 16.3607 44.1935C16.2357 44.3345 16.1681 44.5172 16.1713 44.7055C15.972 48.4826 16.1096 56.828 24.4651 55.9373C25.3414 55.8439 26.2412 55.8227 27.1054 56.1193C36.4277 59.3195 35.3854 73.0891 35.3737 73.228C35.3577 73.4182 35.4179 73.607 35.5411 73.7528C35.6642 73.8987 35.8403 73.9897 36.0305 74.0057C36.0511 74.0074 36.0717 74.0082 36.0922 74.0082H70.1061C70.2956 74.0082 70.4775 73.9335 70.6123 73.8002C70.7471 73.667 70.8239 73.486 70.826 73.2964C70.9861 59.2039 67.8379 51.0064 65.169 46.611C62.293 41.8778 59.3584 40.3809 59.0922 40.2521ZM18.2085 39.2378C18.1846 39.3977 18.129 39.5512 18.045 39.6893C17.961 39.8274 17.8503 39.9474 17.7193 40.0421C17.5923 40.1352 17.4481 40.2021 17.295 40.2388C17.1418 40.2756 16.9829 40.2814 16.8275 40.256C14.4881 39.8598 12.3992 38.5572 11.0142 36.6306C12.896 34.7977 14.6707 32.8945 16.2956 30.9668L16.6313 30.5832L19.5141 33.8299C18.936 35.595 18.4994 37.4033 18.2085 39.2378ZM24.4162 31.2863C24.0452 30.8783 23.5942 30.5511 23.0912 30.3251C22.5882 30.0992 22.044 29.9793 21.4926 29.973C21.1574 29.9744 20.8253 29.909 20.5156 29.7806C20.206 29.6521 19.925 29.4633 19.6892 29.2251L16.9896 26.485C16.6879 26.1764 16.5041 25.7716 16.4703 25.3413C16.4364 24.911 16.5547 24.4825 16.8045 24.1305C17.5108 23.127 18.3197 22.1999 19.2181 21.3641C19.5604 21.0468 20.0109 20.8723 20.4776 20.8761C20.9443 20.8799 21.3919 21.0618 21.729 21.3847L24.2771 24.1543C24.9365 24.8714 25.3748 25.7637 25.5393 26.7239C25.9169 28.8819 26.157 31.0617 26.2581 33.2502L24.4162 31.2863ZM54.7451 40.5615L53.3167 42.9683L50.0529 40.4288L52.0026 38.4789L54.7451 40.5615ZM52.5759 44.2161L50.9444 46.9652L50.3975 42.5219L52.5759 44.2161ZM48.9676 39.4776L47.1491 37.6592L51.2182 35.8734V37.227L48.9676 39.4776ZM57.9478 26.9876C58.1203 27.0591 58.2677 27.1803 58.3713 27.3357C58.4748 27.4912 58.5299 27.6738 58.5296 27.8606C58.539 28.5203 58.2926 29.2078 57.7966 29.9041C57.2669 30.6476 56.6918 30.9588 56.0491 30.8471C56.0868 30.7128 56.1217 30.5753 56.152 30.4334C56.3257 29.6204 56.3906 28.7878 56.3451 27.9577C56.5144 27.6584 56.7268 27.3856 56.9754 27.148C57.1033 27.0279 57.2639 26.9485 57.437 26.92C57.6101 26.8914 57.7877 26.9149 57.9474 26.9876H57.9478ZM40.3769 29.9039C39.8812 29.2074 39.6345 28.5199 39.644 27.8606C39.6436 27.6738 39.6988 27.4911 39.8024 27.3356C39.906 27.1801 40.0534 27.0589 40.226 26.9874C40.3855 26.9148 40.5631 26.8913 40.7361 26.9198C40.9091 26.9483 41.0697 27.0276 41.1975 27.1476C41.4456 27.3844 41.6577 27.6563 41.827 27.9546C41.7818 28.7858 41.8471 29.6192 42.0212 30.4332C42.052 30.5751 42.0874 30.7121 42.124 30.8465C41.483 30.9588 40.9069 30.6482 40.3769 29.9039ZM40.9118 21.3933L41.0225 19.3979C41.0469 18.9432 41.248 18.5159 41.5828 18.2073C42.796 17.1216 44.2184 16.2956 45.7626 15.7799C47.9175 15.0443 50.2556 15.0443 52.4105 15.7799C53.9547 16.2956 55.3772 17.1216 56.5903 18.2073C56.9253 18.5159 57.1263 18.9431 57.1507 19.3979L57.2614 21.3933C55.8652 20.9551 53.1291 20.3131 49.0867 20.3131C45.0443 20.3131 42.3081 20.9553 40.9118 21.3933ZM43.4282 30.1275C42.5824 26.5868 44.6213 23.156 45.4222 21.9539C47.8489 21.5537 50.3247 21.5537 52.7514 21.9539C53.5321 23.1264 55.5285 26.5636 54.7451 30.1275C53.7273 34.7517 44.6901 35.4091 43.4282 30.1275ZM45.849 38.3956L47.8814 40.4282L44.8077 42.8196L43.0096 39.7658L45.849 38.3956ZM47.7134 42.3835L47.2485 46.965L45.5446 44.0711L47.7134 42.3835ZM49.6762 54.8651C49.6203 54.9565 49.5418 55.0319 49.4484 55.0843C49.3549 55.1366 49.2496 55.1641 49.1424 55.1641C49.0353 55.1641 48.93 55.1366 48.8365 55.0843C48.743 55.0319 48.6646 54.9565 48.6086 54.8651L38.7887 38.8578C39.1953 38.7546 39.6143 38.7082 40.0336 38.7198C40.2595 38.7407 40.4771 38.8151 40.6686 38.9367C40.86 39.0583 41.0198 39.2237 41.1348 39.4192L48.4665 51.8712C48.53 51.979 48.6205 52.0684 48.729 52.1305C48.8376 52.1927 48.9605 52.2255 49.0856 52.2257C49.2107 52.2259 49.3337 52.1935 49.4424 52.1317C49.5512 52.0699 49.642 51.9808 49.7059 51.8733L56.1407 41.0311C56.7657 41.005 57.3906 41.0874 57.9875 41.2747L49.6762 54.8651Z" style="transition: none !important; animation-duration: 0s !important; animation-delay: -0.0001s; animation-play-state: paused; fill: rgb(3, 3, 3); transform-origin: 0px 0px; transition-property: none; visibility: visible"></path><path d="M46.7424 27.6411C46.9334 27.6411 47.1165 27.5653 47.2516 27.4302C47.3866 27.2952 47.4624 27.1121 47.4624 26.9211V26.2532C47.4624 26.0622 47.3866 25.8791 47.2516 25.7441C47.1165 25.6091 46.9334 25.5332 46.7424 25.5332C46.5515 25.5332 46.3684 25.6091 46.2333 25.7441C46.0983 25.8791 46.0225 26.0622 46.0225 26.2532V26.9211C46.0225 27.1121 46.0983 27.2952 46.2333 27.4302C46.3684 27.5653 46.5515 27.6411 46.7424 27.6411ZM51.4306 27.6411C51.6215 27.6411 51.8046 27.5653 51.9397 27.4302C52.0747 27.2952 52.1505 27.1121 52.1505 26.9211V26.2532C52.1505 26.0622 52.0747 25.8791 51.9397 25.7441C51.8046 25.6091 51.6215 25.5332 51.4306 25.5332C51.2396 25.5332 51.0565 25.6091 50.9215 25.7441C50.7864 25.8791 50.7106 26.0622 50.7106 26.2532V26.9211C50.7106 27.1121 50.7864 27.2952 50.9215 27.4302C51.0565 27.5653 51.2396 27.6411 51.4306 27.6411ZM51.9162 31.1343C52.0352 30.987 52.0914 30.7988 52.0726 30.6104C52.0538 30.422 51.9616 30.2486 51.8159 30.1277C51.6702 30.0068 51.4827 29.9482 51.2941 29.9645C51.1055 29.9808 50.9309 30.0708 50.8081 30.2149C50.7258 30.3135 50.2586 30.8049 49.0768 30.8049C47.895 30.8049 47.4273 30.3135 47.3454 30.2147C47.285 30.142 47.2109 30.0818 47.1273 30.0377C47.0436 29.9935 46.9521 29.9663 46.858 29.9575C46.6678 29.9398 46.4784 29.9984 46.3314 30.1203C46.1845 30.2423 46.0919 30.4176 46.0742 30.6077C46.0565 30.7979 46.1151 30.9873 46.237 31.1343C46.5141 31.4681 47.3456 32.2451 49.0768 32.2451C50.8081 32.2451 51.6394 31.4683 51.9162 31.1343Z" style="transition: none !important; animation-duration: 0s !important; animation-delay: -0.0001s; animation-play-state: paused; fill: rgb(3, 3, 3); transform-origin: 0px 0px; transition-property: none; visibility: visible"></path></svg>