<?xml version="1.0" encoding="UTF-8"?>
<svg xmlns="http://www.w3.org/2000/svg" width="36" height="42" viewBox="0 0 36 42" style="transition: none !important; animation-duration: 0s !important; animation-delay: -0.0001s; animation-play-state: paused; display: inline; fill: rgb(76, 76, 76); height: 50px; transition-property: none; visibility: visible; width: 50px"><path d="M33.2423 25.6422C34.4876 23.2302 35.1991 20.4997 35.1991 17.6037C35.1991 7.92679 27.3261 0 17.5996 0C7.88545 0 0 7.91441 0 17.6037C0 20.2805 0.612305 22.8165 1.68798 25.0878L1.37766 26.1304C1.33144 26.2889 1.34989 26.4593 1.42896 26.6043C1.50803 26.7493 1.6413 26.857 1.79962 26.904C2.12644 26.9992 2.46984 26.813 2.56919 26.4821L3.76896 22.4276C3.79792 22.3366 3.89718 22.2787 3.98827 22.3035L6.68568 23.0068C6.70991 23.0126 6.73266 23.0234 6.75249 23.0385C6.77232 23.0536 6.78879 23.0726 6.80086 23.0944C6.81292 23.1162 6.82031 23.1403 6.82255 23.1651C6.8248 23.1899 6.82185 23.2149 6.8139 23.2385L4.02548 31.6701C3.99652 31.7652 3.89305 31.819 3.80205 31.7901L1.40662 31.0412C1.31149 31.0123 1.26182 30.913 1.28666 30.8178L1.72932 29.3284C1.82445 29.0016 1.63831 28.6541 1.31149 28.5589C0.980547 28.4597 0.637141 28.6499 0.537883 28.9767L0.0993436 30.4661C-0.124094 31.2109 0.30207 32.0011 1.04259 32.2285L3.43389 32.9732C4.12483 33.1883 4.8571 32.8408 5.14671 32.1996L5.75489 32.4354C5.32048 33.2338 5.51908 34.2185 6.22652 34.7895C6.49954 35.0088 6.82645 35.1411 7.16564 35.1826C6.93395 36.0514 7.24015 36.9408 7.9145 37.4828C8.4358 37.9007 9.13498 38.0786 9.8383 37.9049C9.93343 38.4262 10.2023 38.8937 10.6202 39.2288C11.096 39.6094 11.7042 39.8038 12.4116 39.6755C12.4157 39.7004 12.4116 39.7211 12.4116 39.7417C12.4695 40.263 12.7261 40.7305 13.1356 41.0615C13.4827 41.3406 13.9149 41.4925 14.3602 41.4917C14.8567 41.4917 15.349 41.3014 15.7255 40.9415L15.9448 41.1566C16.8922 42.075 18.4313 41.9509 19.2173 40.8918C19.3663 40.6891 19.478 40.4699 19.5484 40.2382C20.5372 40.9166 21.861 40.7057 22.5974 39.7914C22.8414 39.4874 23.0025 39.1253 23.0649 38.7405C24.0041 39.1294 25.1708 38.8688 25.8286 37.9503C26.1265 37.5408 26.2754 37.0443 26.263 36.5478C27.227 36.9946 28.3606 36.6554 28.9191 35.7452C29.1748 35.3303 29.2767 34.8388 29.2072 34.3565C29.1376 33.8741 28.901 33.4315 28.5385 33.1057L29.8086 31.848L29.8873 32.0341C30.2058 32.8078 31.1201 33.147 31.8731 32.7664L34.3637 31.5087C34.6974 31.3428 34.9538 31.0539 35.0788 30.7028C35.2038 30.3517 35.1877 29.9658 35.0339 29.6264L33.2423 25.6422ZM31.4218 8.866H25.605C24.641 5.68038 23.1558 3.16078 21.3519 1.68386C25.5719 2.67678 29.163 5.30802 31.4218 8.866ZM17.5996 1.46867C20.3466 1.46867 22.8207 4.45156 24.2604 8.86591H10.9387C12.3784 4.45165 14.8525 1.46867 17.5996 1.46867ZM10.5705 10.1071H24.6287C25.1872 12.1881 25.5223 14.5215 25.5719 16.9831H9.62723C9.67682 14.5215 10.012 12.1881 10.5705 10.1071ZM25.5678 18.2242C25.5264 20.2556 25.2906 22.2042 24.8934 23.9956L20.9838 22.2456C20.4873 22.0264 19.9371 21.9478 19.3993 22.0305L15.5434 22.5973C14.8856 22.6924 14.2774 23.0192 13.8306 23.5116L13.2886 24.1156L10.3305 24.1032C9.92097 22.2829 9.67278 20.2971 9.63136 18.2242H25.5678ZM1.25769 16.9831C1.3487 14.5091 1.98997 12.1799 3.06565 10.1071H9.25074C8.73357 12.1922 8.43159 14.5132 8.38604 16.9831H1.25769ZM7.8937 33.7263C7.67448 33.9952 7.27727 34.0407 7.00425 33.8214C6.73535 33.6063 6.68568 33.2091 6.90499 32.9319L7.447 32.2575C7.66623 31.9845 8.06343 31.9431 8.33645 32.1624C8.60535 32.3775 8.65502 32.7747 8.43571 33.0518L7.8937 33.7263ZM10.0658 36.3658C9.72649 36.7837 9.11419 36.854 8.69223 36.5148C8.27028 36.1755 8.20815 35.5632 8.5433 35.1453L9.42038 34.0532C9.75545 33.6353 10.372 33.5691 10.7898 33.9042C10.89 33.9844 10.9734 34.0837 11.0352 34.1962C11.097 34.3088 11.1359 34.4324 11.1498 34.56C11.1636 34.6877 11.1521 34.8168 11.1159 34.94C11.0796 35.0631 11.0194 35.1779 10.9387 35.2778L10.0658 36.3658ZM13.1893 37.6111L12.788 38.1116C12.4405 38.5419 11.8158 38.5999 11.3979 38.2647C10.9759 37.9213 10.9056 37.3007 11.2448 36.8787L11.6503 36.374C11.9937 35.9478 12.6143 35.8817 13.0362 36.2209C13.4624 36.5644 13.5285 37.185 13.1893 37.6111ZM15.3655 39.4356L14.9269 39.9816C14.6745 40.292 14.2195 40.3416 13.9134 40.0934C13.603 39.841 13.5493 39.3901 13.8016 39.0797L14.2402 38.5295C14.4926 38.2192 14.9435 38.1696 15.2538 38.4219C15.5641 38.6702 15.6137 39.1253 15.3655 39.4356ZM27.8597 35.0957C27.6322 35.468 27.1605 35.6046 26.7634 35.4101L23.3916 33.7511C23.0855 33.598 22.7131 33.7263 22.56 34.0325C22.411 34.3386 22.5351 34.7109 22.8413 34.864L24.4258 35.6418C25.0174 35.9355 25.2078 36.6885 24.8189 37.2263C24.459 37.7269 23.7557 37.8179 23.2799 37.4373L21.1575 35.7286C20.8886 35.5135 20.4997 35.559 20.2845 35.8237C20.0694 36.0926 20.1108 36.4816 20.3796 36.6967L21.4719 37.5738C21.6827 37.7445 21.8174 37.9916 21.8469 38.2613C21.8763 38.5309 21.798 38.8013 21.6291 39.0135C21.2567 39.4769 20.5741 39.5265 20.1397 39.1252C20.0943 39.088 18.2697 37.4124 18.2697 37.4124C18.0091 37.1931 17.6243 37.2179 17.4009 37.4703C17.1774 37.7227 17.194 38.1116 17.4463 38.3391L18.2531 39.0796C18.46 39.4023 18.46 39.8326 18.22 40.1512C17.8766 40.6187 17.2105 40.6559 16.8093 40.267L16.4948 39.9609C16.9706 39.1377 16.7968 38.0661 16.0315 37.4538C15.6343 37.1352 15.1419 36.9904 14.6372 37.0318C14.6413 36.9367 14.6455 36.8457 14.6331 36.7505C14.571 36.1589 14.2814 35.6293 13.8139 35.257C13.4044 34.926 12.9038 34.7646 12.3866 34.7729C12.4197 34.0902 12.1425 33.3994 11.5674 32.936C11.0544 32.5223 10.409 32.3857 9.80504 32.4892C9.80091 32.4768 9.80504 32.4644 9.80504 32.452C9.74712 31.9555 9.50305 31.5087 9.1141 31.1943C8.33628 30.5696 7.20689 30.673 6.54904 31.4136L5.63062 31.0537L7.64955 24.9348L7.79023 24.9968C8.9528 25.5388 9.7802 25.274 12.1756 25.3526L11.253 26.3786C10.7565 26.9289 10.9013 27.7935 11.5509 28.1535C13.3795 29.1754 15.1502 28.9272 16.6726 27.4418C16.7181 27.4005 16.7761 27.3715 16.8423 27.3798L19.155 27.4625C19.577 28.7574 20.5698 29.8993 22.1668 30.9088C22.1751 30.9129 22.1793 30.9129 22.1834 30.917C22.3985 31.0536 27.3342 33.7924 27.5493 33.9124C27.6496 33.9676 27.7376 34.0425 27.808 34.1328C27.8783 34.223 27.9296 34.3267 27.9586 34.4374C27.9877 34.5481 27.9939 34.6635 27.9769 34.7767C27.9599 34.8899 27.92 34.9984 27.8597 35.0957ZM27.4544 32.4355C27.4089 32.4106 24.3308 30.702 24.1736 30.611L24.608 30.4911C24.939 30.4 25.1335 30.0566 25.0424 29.7257C24.9514 29.3947 24.608 29.2003 24.2771 29.2954L22.7132 29.7257C21.2941 28.7907 20.533 27.9633 20.2309 26.7138C20.1647 26.4449 19.9289 26.2505 19.6517 26.2422C17.7196 26.1719 16.8715 26.1388 16.8342 26.1388C16.4515 26.1382 16.0835 26.2865 15.8082 26.5525C14.6994 27.6323 13.5658 27.8184 12.2543 27.1234L14.7531 24.3433C15.0055 24.0619 15.3489 23.8799 15.7254 23.822L19.5812 23.2552C19.8833 23.2097 20.1976 23.2552 20.479 23.3793L24.6741 25.2575C24.9495 25.3801 25.2488 25.4397 25.5502 25.4318C25.8515 25.4239 26.1473 25.3488 26.4159 25.212L26.8296 25.001L29.2581 30.6441L27.4544 32.4355ZM31.3102 21.3562C30.9793 20.6198 30.1104 20.2929 29.374 20.6404L27.082 21.7202C26.8338 21.836 26.6393 22.0139 26.4987 22.2249C26.6807 20.9465 26.7841 19.6102 26.809 18.2242H33.9373C33.8587 20.3301 33.3829 22.3325 32.5762 24.1652L31.3102 21.3562Z" style="transition: none !important; animation-duration: 0s !important; animation-delay: -0.0001s; animation-play-state: paused; fill: rgb(0, 173, 226); transform-origin: 0px 0px; transition-property: none; visibility: visible"></path></svg>